<svg version="1.1" xmlns="http://www.w3.org/2000/svg" viewBox="0 0 399.5226399619677 288.00000000000443" width="1198.567919885903" height="864.0000000000133">
  <!-- svg-source:excalidraw -->
  
  <defs>
    <style>
      @font-face {
        font-family: "Virgil";
        src: url("https://excalidraw.com/Virgil.woff2");
      }
      @font-face {
        font-family: "Cascadia";
        src: url("https://excalidraw.com/Cascadia.woff2");
      }
    </style>
  </defs>
  <rect x="0" y="0" width="399.5226399619677" height="288.00000000000443" fill="#ffffff"></rect><g stroke-linecap="round" transform="translate(227.12312280933418 22.96663080986778) rotate(88.30164419154018 68 67.99999999999999)"><path d="M8.21 33.64 C8.21 33.64, 8.21 33.64, 8.21 33.64 M8.21 33.64 C8.21 33.64, 8.21 33.64, 8.21 33.64 M6.33 43.14 C16.08 32.3, 23.31 22.22, 30.01 12.66 M5.59 42.66 C12.6 33.91, 18.75 27.06, 32.55 12.41 M5.18 52.5 C13.91 40.11, 22.42 27.16, 39.8 10.21 M2.98 50.15 C13.79 40.12, 24.36 27.87, 38.97 9.85 M2.33 61.31 C18.4 41.17, 36.87 17.67, 46.35 6.11 M0.99 58.98 C15.4 42.8, 30.37 26.68, 46.55 7.21 M-0.3 67.17 C14.44 51.04, 26.7 36.5, 51.99 3.9 M0.36 65.97 C20.33 42.37, 42.14 19.61, 54.3 5.06 M2.99 72.82 C21.62 48.15, 41.7 26.8, 61.55 1.9 M1.51 70.7 C14.62 56.33, 27.76 41.86, 62.94 1.63 M1.98 75.07 C20.08 55.47, 40.3 33.09, 67.51 2.75 M2.92 76.96 C28.6 49.3, 52.34 19.73, 69.09 1.78 M3.45 80.22 C28.01 52.93, 52.76 25.69, 72.09 1.97 M3.06 81.6 C18.15 64.85, 32.09 48.65, 73.4 2.06 M3.52 85 C30.36 57.64, 53.23 29.84, 77.03 0.7 M4.79 85.94 C27.74 59.87, 49.2 34.37, 77.31 2.9 M4.65 88.53 C25.97 69.01, 43.07 48.35, 81.19 4.66 M7.33 91.21 C32.25 59.2, 59.7 29.08, 82.78 4.06 M7.29 93.97 C33.66 64.27, 62.11 31.95, 87.57 6.31 M8.01 94.69 C39.77 59.58, 70.55 23.62, 86.23 4.24 M11.43 99.23 C34.06 72.04, 59.36 41.31, 90.26 6.8 M10.82 97.84 C32.49 73.48, 54.2 48.21, 91.6 5.49 M12.41 103.16 C39.72 73.42, 66.31 43.41, 94.76 8.65 M12.25 103.01 C42.85 67.11, 73.26 32.89, 95.67 7.41 M13.77 105.01 C46.83 67.25, 78.62 31.94, 100.94 5.69 M15.18 106.29 C46.01 68.24, 79.35 31.67, 99.05 7.49 M16.28 108.54 C33.34 89.48, 51.39 66.78, 103.44 8.27 M17.91 108.22 C38.27 84.1, 60.26 58.63, 103.63 9.82 M18.89 110.04 C44.13 86.74, 65.68 56.6, 105.81 12.88 M20.2 111.15 C38.22 90.78, 56.71 68.97, 106.72 13.22 M22.44 115.99 C51.69 81.05, 84.23 47.43, 110.32 14.43 M22.96 115.42 C44.56 88.7, 67.6 63.49, 109.93 14.88 M25.89 119.22 C53.88 88.83, 82.13 54.29, 110.19 18.6 M25.53 119.01 C56.24 80.29, 89.26 42.41, 111.39 17.32 M26.66 119.88 C54.63 89.25, 85.9 53.21, 113.93 18.59 M28.06 120.95 C51.81 93.64, 75.24 68.38, 115.17 20.5 M31.01 124.39 C50.72 98.6, 69.79 73.36, 119.66 21.8 M30.91 123.73 C62.92 87.25, 94.25 51.18, 117.55 22.98 M33.55 126.06 C61.65 96.3, 86.22 65.08, 119.37 26.47 M34.18 126.42 C64.39 92.94, 91.95 58.81, 120.45 26.11 M39.03 129.36 C59.56 104.19, 83.07 76.31, 125.32 28.41 M36.57 128.41 C63.96 97.16, 90.15 66.94, 123.68 29.14 M41.24 131.31 C62.29 106.2, 78.9 85.93, 124.96 31.22 M40.26 129.22 C74.26 90.82, 107.12 53.2, 125.05 32.92 M45.99 131.68 C77.6 95.57, 109.62 57.31, 127.2 36.36 M44.96 132.22 C67.1 107.15, 88.33 81.07, 126.6 36.52 M49.44 131.68 C67.88 109.9, 87.89 87.07, 130.83 40.48 M48.25 133.75 C77.97 102.76, 104.85 69.17, 130.04 39.91 M51.07 133.87 C81.34 101.02, 107.3 73.5, 132.09 44.5 M53.6 134.55 C79.61 106.03, 106.17 73.77, 130.39 45.59 M58 135.14 C83.45 106.93, 107.56 77.84, 133 50.35 M56.72 135.17 C88.25 101.87, 118.37 67.63, 133.3 48.79 M63.98 136.39 C81.46 114.55, 97.2 93.61, 136.34 50.9 M61.54 137.08 C85.58 109.36, 109.88 83.4, 134.12 51.83 M69.66 135.42 C84.22 115.87, 99.95 99.82, 135.33 57.65 M68.57 136.14 C88.94 111.26, 107.25 89.29, 136.53 57.31 M74.97 135.68 C94.67 109.56, 117.48 86.07, 140.53 58.13 M74.28 134.73 C90.65 115.87, 108.57 97.3, 139.55 60 M78.71 135.44 C96.98 113.59, 112.66 95.77, 136.29 65.68 M78.71 135.38 C95.57 115.82, 112.5 97.55, 138.97 68.02 M86.21 133.19 C104.52 112.15, 125.29 88.54, 135.52 75.76 M84.19 133.72 C102.47 114.73, 119.64 94.14, 138.17 73.67 M90.98 135.12 C102.35 120.04, 113.07 108.38, 137.51 82.72 M89.02 134.35 C107.45 114.25, 124.46 92.95, 136.98 81.69 M100.24 125.24 C111.81 114.29, 122.55 103.17, 131.55 88.99 M102.01 126.47 C111.6 116.74, 121.12 105.84, 133.3 90.85" stroke="#fab005" stroke-width="0.5" fill="none"></path><path d="M66.87 -0.8 C76.85 -2.01, 89.4 1.79, 98.67 6.46 C107.95 11.13, 116.28 18.69, 122.52 27.25 C128.75 35.81, 134.45 47.44, 136.08 57.81 C137.71 68.17, 135.81 79.65, 132.29 89.44 C128.77 99.23, 122.24 109.16, 114.95 116.54 C107.66 123.93, 98.31 130.54, 88.56 133.75 C78.81 136.96, 66.65 137.78, 56.46 135.81 C46.26 133.85, 35.65 128.51, 27.39 121.98 C19.12 115.45, 11.49 105.93, 6.87 96.61 C2.26 87.29, -0.46 76.51, -0.29 66.07 C-0.12 55.63, 2.8 43.13, 7.91 33.98 C13.02 24.84, 21.31 16.74, 30.37 11.21 C39.44 5.68, 54.11 2.62, 62.29 0.81 C70.46 -0.99, 75 -0.44, 79.43 0.37 C83.85 1.19, 89.02 4.41, 88.83 5.69 M46.98 2.96 C55.95 -1.42, 67.09 -2.08, 77.3 -0.29 C87.5 1.51, 99.4 7.63, 108.2 13.72 C117 19.81, 125.65 27.25, 130.11 36.25 C134.57 45.24, 135.48 56.93, 134.96 67.69 C134.45 78.44, 131.59 91.45, 127.02 100.77 C122.45 110.08, 116.18 117.68, 107.56 123.56 C98.93 129.43, 85.62 134.67, 75.27 136 C64.92 137.33, 54.78 135.43, 45.47 131.55 C36.15 127.67, 26.49 120.26, 19.39 112.73 C12.3 105.2, 5.65 96.2, 2.92 86.36 C0.18 76.52, 1.11 63.86, 2.97 53.69 C4.83 43.52, 7.89 33.5, 14.09 25.34 C20.29 17.19, 34.78 8.38, 40.15 4.76 C45.52 1.14, 45.48 3.35, 46.33 3.6 C47.17 3.85, 45.07 4.91, 45.22 6.24" stroke="#000000" stroke-width="1" fill="none"></path></g><g stroke-linecap="round" transform="translate(18.185296644575374 28.16132016967211) rotate(88.30164419154018 68 67.99999999999999)"><path d="M15.19 26.46 C15.19 26.46, 15.19 26.46, 15.19 26.46 M15.19 26.46 C15.19 26.46, 15.19 26.46, 15.19 26.46 M9.83 37.18 C18.17 27.12, 27.59 18.18, 33.89 11.41 M10.62 38.27 C14.88 32.45, 20.03 25.66, 33.41 12.03 M3.19 51.97 C14.58 35.6, 30.34 24.12, 42.13 7.07 M4.28 52.07 C13.44 41.33, 21.37 32.32, 43.09 8.23 M6.31 56.69 C18.73 39.79, 33.58 19.9, 47.02 6.87 M4.18 56.71 C13.94 47.29, 22.35 37.87, 46.95 6.8 M5.56 61.87 C15.49 51.52, 28.78 35.25, 54.29 6.43 M5.4 61.64 C21.98 43.69, 38.53 22.84, 53.55 5.86 M3.44 69.87 C17.2 54.34, 29.81 40.39, 62.12 3.47 M5.34 69.52 C21.81 49.2, 39.56 27.74, 61.4 4.22 M5.66 73.32 C18.42 56.47, 33.66 43.58, 67.39 3.67 M4.83 75.18 C20.19 56.54, 36.07 38.3, 66.16 2.78 M5.49 80.4 C17.89 65.69, 33.53 50.62, 71.32 4.2 M5.48 80.3 C32.03 52.15, 57.11 22.92, 72.39 2.43 M3.39 87.96 C23.82 68.9, 41.65 46.81, 79.8 2.3 M5.39 87.03 C21.19 66.79, 38.86 46.79, 78.87 2.17 M5.87 90.68 C31.86 62.64, 56.36 32.41, 83.06 5.08 M7.04 90.65 C23.75 71.99, 39.04 53.39, 82.32 3.34 M9.4 96.37 C35.74 64.51, 64.73 30.28, 87.84 5.08 M9.16 95.26 C39.69 60.36, 70.2 24.87, 86.58 4.71 M10.48 98.79 C33.96 71.98, 56.3 47.8, 91.9 8.07 M11.92 98.15 C40.96 63.79, 71.1 29, 91.17 6.66 M12.07 101.42 C36.99 73.39, 58.77 49.09, 95.51 9.92 M13.35 102 C32.58 79.84, 50.96 57.09, 93.8 7.57 M13.17 104.08 C33.86 83.73, 51.24 63.3, 97.23 10.33 M15.93 104.97 C37.31 81.11, 59.18 54.55, 98.19 10.03 M17.87 111.67 C49.1 73.98, 77.28 40.52, 102.11 12.99 M17.73 109.9 C47.78 75.26, 77.29 40.96, 101.29 12.44 M20.27 113.59 C46.59 78.75, 80.54 43.96, 106.04 14.52 M18.3 113.23 C51.49 76.06, 85.52 39.05, 105.68 12.43 M22.13 115.14 C44.08 88.12, 66.51 62.97, 110.11 15.43 M22.39 116.84 C49.34 85.4, 75.62 54.95, 110.95 15.3 M23.26 117.05 C53.49 86.77, 79.87 56.46, 113.54 19.77 M25.36 119.07 C45.65 93.67, 67.74 68.89, 112.63 18.11 M27.73 121.07 C51.71 91.88, 79.93 59.41, 115.93 21.6 M27.43 120.75 C55.74 88.19, 84.72 54.45, 115.56 21.64 M32.91 122.46 C64.92 86, 95.47 50.24, 117.72 22.4 M31.71 123.18 C60.62 90.33, 89.71 55.81, 118.27 24.28 M33.77 126.93 C64.97 88.3, 99.36 52.32, 121.73 25.81 M34.59 125.54 C54.49 103.4, 76.22 80.02, 119.62 28.2 M39.82 126.02 C62.92 98.35, 87.82 70.54, 121.49 30.47 M37.7 127.75 C66.92 93.12, 96.84 58.63, 123.16 30.71 M40.18 129.89 C60.97 110.51, 77.43 89.44, 123.59 33.09 M40.94 129.67 C68.33 98.33, 94.44 68.23, 126.49 32.74 M45.11 133.9 C67.27 107.95, 88.18 82.67, 125.94 38.51 M45.16 131.22 C68.41 104.99, 92.8 76.91, 127.55 37.42 M47.1 135.37 C70.47 110.65, 93.97 82.62, 132.12 38.71 M49.18 135.59 C67.71 111.58, 85.92 90.48, 130.01 40.54 M51.74 134.72 C78.39 105.84, 101.9 78.81, 130.39 43.26 M53.74 135.82 C83.3 99.55, 114.09 65.71, 132.31 45.44 M59.49 135.96 C77.36 112.94, 99.63 87.81, 133.87 50.93 M57.29 135.77 C82.3 108.14, 107.77 78.96, 132.9 50.17 M64.57 135.83 C86.97 108.83, 107.01 85.02, 132.33 55.94 M63.9 136.76 C80.26 117.11, 96.2 98.29, 133.99 54.1 M67.28 136.76 C87.63 110.51, 110.67 85.57, 134.44 58.4 M67.66 136.97 C92.24 111.23, 114.74 84.1, 134.92 59.92 M74.33 135.56 C85.92 121.47, 102.49 102.63, 138.1 62.97 M73.97 135.57 C87.03 120.62, 98.93 105.35, 136.42 64.7 M78.49 136.57 C98.17 116.81, 116.1 96.86, 138.07 68.31 M79.27 134.42 C93.48 120.06, 106.47 103.78, 137.38 68.87 M88.88 130.67 C95.83 119.03, 107.57 109.63, 136.3 77.78 M88.32 132.47 C99 118.42, 110.62 104.31, 135.15 77.34 M95.34 128.15 C108.5 114.39, 118.89 103.16, 134.21 83.57 M96.69 129.14 C103.66 118.92, 110.99 111.07, 132.81 85.15 M105.35 126.19 C111.69 113.88, 121.6 104.81, 133.68 91.46 M104.59 125.26 C111.64 115.18, 120.04 107.69, 132.3 92.63 M18.75 114.09 C18.75 114.09, 18.75 114.09, 18.75 114.09 M18.75 114.09 C18.75 114.09, 18.75 114.09, 18.75 114.09 M44.78 130.12 C32.26 122.41, 19.55 108.82, 13.48 101.96 M45.21 133.01 C33.1 121.07, 19.8 109.94, 13.98 103.75 M51.7 132.07 C36.06 120.13, 18.15 103.41, 6.33 92.11 M51.54 131.81 C36.81 119.5, 22.39 106.71, 6.76 92.99 M56.91 134.25 C47.28 123.89, 37.14 114.51, 3.57 86.3 M57.36 131.87 C42.2 119.24, 25.07 105.21, 3.36 85.83 M65.62 132.39 C42.39 113.58, 17.87 91.5, 4.88 77.82 M66.4 134.21 C51.68 122.22, 39.24 109.45, 2.71 78.87 M72.3 135.54 C51.81 117.31, 33.28 98.28, 5.29 74.79 M71.9 133.47 C56.98 120.97, 44.19 110.26, 4.55 75.05 M79.54 132.63 C61.49 118.25, 46 108.46, 3.24 68.1 M77.5 134.99 C61.28 120.54, 43.92 105.9, 2.62 69.11 M81.06 132.6 C60.85 110, 34.23 90.43, 4.4 63.41 M83.27 132.39 C54.32 106.5, 23.32 80.63, 2.49 64.05 M87.6 129.64 C63.25 108.95, 40.05 88.1, 2.95 59.24 M85.63 131.24 C58.91 107.44, 33.56 83.45, 1.85 58.68 M92.4 129.96 C68.2 106.04, 40.13 85.21, 2.22 51.58 M89.9 129.38 C58.68 100.37, 24.05 69.99, 3.18 52.72 M95.79 128.44 C67.45 101.83, 38.53 78.87, 7.13 51.37 M94.87 127.99 C74.53 109, 54.41 92.91, 5.27 49.7 M97.54 125.38 C62.83 92.09, 29.44 62.13, 8.87 45.06 M98.22 125.79 C76.21 105.12, 53.17 86.09, 7.85 46.07 M103.09 125.09 C67.31 88.95, 26.73 56.85, 9.13 43.37 M102.76 124.14 C69.49 94.95, 37.45 66.87, 8.95 41.36 M107.97 120.67 C73.32 91.83, 37.98 60.93, 8.72 37.95 M107.89 121.25 C79.32 97.95, 50.05 71.13, 11.45 37.29 M110.51 119.3 C73.42 85.61, 34.75 55.63, 11.35 34.05 M110.32 120.01 C81.99 96.08, 53.98 71.57, 11.97 34.02 M113.48 115.61 C87.73 96.16, 65.13 73.64, 12.95 31.93 M112.78 116.71 C84.37 89.57, 54.52 65.23, 14.17 29.9 M114.84 111.72 C77.7 83.19, 40.48 48.53, 17.24 26.84 M116.78 113.68 C88.04 87.44, 58.27 64.01, 15.38 27.01 M118.11 111.25 C92.77 88.08, 64.4 64.95, 18.01 23.7 M118.02 110.65 C84.26 81.04, 49.84 52.94, 18.93 24.25 M119.66 107.32 C96.49 86.13, 74.47 68.86, 21 19.13 M121.66 107.32 C102.39 90.72, 82.9 73, 20.99 20.89 M121.74 103.93 C87.47 69.16, 47.45 37.94, 24.89 19.52 M124.47 104.16 C92 77.08, 59.99 49.64, 23.66 17.06 M127.59 103.32 C103.32 81.14, 77.43 57.21, 29.15 16.3 M127.92 102.2 C94.91 74.55, 61.82 45.88, 27.83 16.52 M130.72 99.99 C96.62 69.37, 66.19 41.99, 30.35 11.36 M130.49 98.6 C100.36 74.83, 73.25 48.57, 31.5 12.54 M132.25 94.02 C103.64 71.57, 79.65 48.37, 33.46 12.37 M131.02 94.4 C95.06 62.73, 58.99 30.18, 34.15 10.68 M129.94 88.46 C100.82 64.28, 71.41 35.45, 36.67 6.15 M130.85 89.35 C101.92 64.12, 71.68 38.65, 37.56 8.66 M131.8 87.28 C113.11 66.66, 94.13 50.37, 38.72 5.99 M131.38 86.39 C103.32 61.22, 76.07 37.18, 40.19 5.11 M133.36 81.53 C113.06 61.82, 93.85 45.81, 44.69 2.41 M134.41 81.22 C98.49 51.48, 62.56 19.78, 42.97 2.8 M134.22 77.91 C105.77 53.52, 79.28 30.28, 46.06 3.09 M134.71 75.39 C110.1 55.44, 88.7 36.85, 48.44 2.08 M136.69 73.47 C103.97 47.12, 78.24 21.65, 53.53 2.29 M135.69 72.42 C105.74 46.87, 78.73 23.75, 53.59 0.74 M135.5 66.36 C113.35 47.37, 92.32 31.89, 58.34 -1.11 M135.17 67.05 C115.03 51.57, 95.39 32.85, 58.14 -0.51 M134.17 60.51 C115.72 46.89, 99.82 29.25, 65.32 0.98 M134.72 61.38 C112.19 41.38, 88.84 21.57, 63.74 -0.91 M132.35 56.17 C112.05 35.34, 91.08 19.16, 70.46 -3.35 M133.11 53.9 C114.87 38.06, 93.76 21.57, 68.46 -1.45 M130.08 48.15 C111.41 30.06, 92.64 14.55, 72.47 -2.73 M131.51 47.15 C116.01 33.6, 99.25 20.76, 74.47 -3.1 M130.36 39.67 C112.09 23.88, 93.52 11.95, 78.85 -3.78 M130.19 42.08 C116.87 29.49, 102.94 17.04, 79.09 -2.63 M131 35.15 C122.03 27.8, 112.06 21.49, 92.73 3.48 M129.32 36.29 C116.54 25.45, 105.24 13.55, 91.65 2.5" stroke="#228be6" stroke-width="0.5" fill="none"></path><path d="M45.63 4.57 C54.68 0.24, 66.49 -1.7, 76.78 -0.33 C87.07 1.04, 98.82 6.52, 107.36 12.81 C115.9 19.1, 123.39 28.22, 128.02 37.42 C132.65 46.63, 135 57.61, 135.14 68.03 C135.28 78.45, 133.48 90.88, 128.88 99.93 C124.28 108.99, 115.99 116.6, 107.52 122.36 C99.06 128.13, 88.47 132.86, 78.08 134.54 C67.68 136.22, 55.09 135.88, 45.18 132.45 C35.26 129.02, 25.53 121.66, 18.58 113.95 C11.64 106.24, 6.23 95.98, 3.52 86.18 C0.81 76.39, 0.31 65.21, 2.31 55.19 C4.31 45.18, 9.09 34.3, 15.52 26.09 C21.95 17.88, 35.43 9.85, 40.89 5.94 C46.35 2.03, 46.51 3.25, 48.3 2.64 C50.09 2.04, 51.38 1.25, 51.63 2.3 M73.92 0.82 C84.11 0.4, 96.11 4.34, 105.11 9.6 C114.12 14.87, 122.87 23.37, 127.94 32.43 C133.02 41.5, 135.11 53.39, 135.57 63.97 C136.03 74.55, 135.16 86.32, 130.72 95.92 C126.28 105.51, 117.13 114.91, 108.96 121.53 C100.78 128.16, 91.68 133.76, 81.67 135.66 C71.66 137.57, 58.98 136.23, 48.89 132.96 C38.8 129.68, 28.68 123.3, 21.12 116.01 C13.56 108.73, 7.08 98.65, 3.53 89.24 C-0.02 79.82, -1.62 69.59, -0.17 59.51 C1.29 49.44, 5.95 37.72, 12.24 28.78 C18.54 19.84, 28.18 10.83, 37.61 5.87 C47.03 0.91, 62.55 0.08, 68.8 -0.98 C75.05 -2.03, 74.39 -0.8, 75.1 -0.45 C75.81 -0.09, 73.4 -0.28, 73.05 1.15" stroke="#000000" stroke-width="1" fill="none"></path></g><g stroke-linecap="round"><g transform="translate(191.0198316115135 26.314188717860418) rotate(88.30164419154018 -0.6951107374113121 41.05293329132722)"><path d="M-0.04 1.08 C0.07 14.3, 0.03 66.77, 0.14 79.98 M-1.53 0.6 C-1.51 13.96, -1.02 68.57, -0.74 81.51" stroke="#000000" stroke-width="1" fill="none"></path></g><g transform="translate(191.0198316115135 26.314188717860418) rotate(88.30164419154018 -0.6951107374113121 41.05293329132722)"><path d="M-9.6 53.69 C-8.56 61.64, -5.23 69.16, 0.05 83.06 M-11.64 53.41 C-8.96 61.46, -4.97 70.44, -1.58 82.23" stroke="#000000" stroke-width="1" fill="none"></path></g><g transform="translate(191.0198316115135 26.314188717860418) rotate(88.30164419154018 -0.6951107374113121 41.05293329132722)"><path d="M10.92 53.4 C6.74 61.41, 4.85 69, 0.05 83.06 M8.88 53.12 C5.55 61.17, 3.53 70.23, -1.58 82.23" stroke="#000000" stroke-width="1" fill="none"></path></g></g><g stroke-linecap="round"><g transform="translate(190.4566059505613 155.20475763126922) rotate(88.30164419154018 -0.19762095764281185 -39.31688295956701)"><path d="M-0.69 0.87 C-0.69 -12.34, -0.55 -66.04, -0.39 -79.51 M1.14 0.29 C1 -12.77, -1.29 -65.06, -1.54 -78.3" stroke="#000000" stroke-width="1" fill="none"></path></g><g transform="translate(190.4566059505613 155.20475763126922) rotate(88.30164419154018 -0.19762095764281185 -39.31688295956701)"><path d="M11.09 -51.1 C5.68 -57.37, 2.07 -66.18, -0.83 -77.51 M9.92 -49.83 C4.99 -60.61, 0.94 -72.38, -2.24 -79.23" stroke="#000000" stroke-width="1" fill="none"></path></g><g transform="translate(190.4566059505613 155.20475763126922) rotate(88.30164419154018 -0.19762095764281185 -39.31688295956701)"><path d="M-9.42 -50.44 C-9.43 -56.77, -7.65 -65.74, -0.83 -77.51 M-10.59 -49.16 C-7.54 -60.23, -3.6 -72.26, -2.24 -79.23" stroke="#000000" stroke-width="1" fill="none"></path></g></g><g stroke-linecap="round"><g transform="translate(370.563661636986 1.4103238310155177) rotate(310.9544051127992 -8.27202214991712 38.00716321058822)"><path d="M-26.42 -0.07 C-17.24 6.74, 31.94 27.35, 28.82 40.02 C25.69 52.69, -32.79 70.03, -45.18 75.94 M-24.66 -1.15 C-15.62 5.86, 31.11 28.02, 27.66 41.07 C24.21 54.13, -33.27 71.3, -45.36 77.17" stroke="#1e1e1e" stroke-width="1" fill="none"></path></g><g transform="translate(370.563661636986 1.4103238310155177) rotate(310.9544051127992 -8.27202214991712 38.00716321058822)"><path d="M-22.89 56.77 C-29.95 63.92, -34.21 68.14, -46.42 76.18 M-22.48 57.77 C-30.84 63.84, -37.25 70.24, -45.4 78.16" stroke="#1e1e1e" stroke-width="1" fill="none"></path></g><g transform="translate(370.563661636986 1.4103238310155177) rotate(310.9544051127992 -8.27202214991712 38.00716321058822)"><path d="M-15.48 75.9 C-24.21 78.35, -30.27 77.9, -46.42 76.18 M-15.08 76.91 C-25.9 76.74, -34.7 76.98, -45.4 78.16" stroke="#1e1e1e" stroke-width="1" fill="none"></path></g></g><g stroke-linecap="round"><g transform="translate(43.354977311570565 124.31773001168321) rotate(117.0881287667537 -8.852779656025064 37.99744058023457)"><path d="M-26.71 -0.77 C-17.26 6.06, 33.55 27.91, 30.2 40.65 C26.84 53.39, -34.17 69.86, -46.84 75.68 M-25.09 1.44 C-15.65 8.47, 33.57 29.49, 29.77 42.04 C25.97 54.59, -35.39 71.04, -47.9 76.76" stroke="#1e1e1e" stroke-width="1" fill="none"></path></g><g transform="translate(43.354977311570565 124.31773001168321) rotate(117.0881287667537 -8.852779656025064 37.99744058023457)"><path d="M-26.04 59.31 C-30.56 60.87, -36.1 66.94, -48.8 77.37 M-24.92 56.97 C-34.1 65.51, -43.67 72.45, -47.66 77.51" stroke="#1e1e1e" stroke-width="1" fill="none"></path></g><g transform="translate(43.354977311570565 124.31773001168321) rotate(117.0881287667537 -8.852779656025064 37.99744058023457)"><path d="M-19.18 78.65 C-25.22 75.74, -32.32 77.39, -48.8 77.37 M-18.06 76.31 C-30.05 77.19, -42.34 76.45, -47.66 77.51" stroke="#1e1e1e" stroke-width="1" fill="none"></path></g></g><g transform="translate(29.99999999999943 210.00000000000443) rotate(0 163 34)"><text x="0" y="54" font-family="Cascadia, Segoe UI Emoji" font-size="55.622317596566525px" fill="#343a40" text-anchor="start" style="white-space: pre;" direction="ltr">POMDPLearn</text></g></svg>